<svg width="24" height="24" viewBox="0 0 24 24" fill="none" xmlns="http://www.w3.org/2000/svg">
<path d="M20 10H21V5H3V10H4C4.53043 10 5.03914 10.2107 5.41421 10.5858C5.78929 10.9609 6 11.4696 6 12C6 12.5304 5.78929 13.0391 5.41421 13.4142C5.03914 13.7893 4.53043 14 4 14H3V19H21V14H20C19.4696 14 18.9609 13.7893 18.5858 13.4142C18.2107 13.0391 18 12.5304 18 12C18 11.4696 18.2107 10.9609 18.5858 10.5858C18.9609 10.2107 19.4696 10 20 10V10ZM19 15.874V17H5V15.874C5.85953 15.653 6.62115 15.1524 7.16498 14.4511C7.7088 13.7498 8.00395 12.8875 8.00395 12C8.00395 11.1125 7.7088 10.2502 7.16498 9.5489C6.62115 8.84756 5.85953 8.347 5 8.126V7H19V8.126C18.1405 8.347 17.3789 8.84756 16.835 9.5489C16.2912 10.2502 15.9961 11.1125 15.9961 12C15.9961 12.8875 16.2912 13.7498 16.835 14.4511C17.3789 15.1524 18.1405 15.653 19 15.874Z" fill="#9A9AB0"/>
<path d="M13.1677 8.44552L9.16772 14.4454L10.8318 15.5548L14.8318 9.55491L13.1677 8.44552Z" fill="#9A9AB0"/>
<path d="M11 9H9V11H11V9Z" fill="#9A9AB0"/>
<path d="M15 13H13V15H15V13Z" fill="#9A9AB0"/>
</svg>
